<mxfile host="app.diagrams.net" modified="2021-11-24T23:09:47.234Z" agent="5.0 (X11; Linux x86_64) AppleWebKit/537.36 (KHTML, like Gecko) Chrome/95.0.4638.54 Safari/537.36" etag="77apE8lbAI8i9xyVOYDX" version="15.8.6" type="github">
  <diagram name="Page-1" id="bfe91b75-5d2c-26a0-9c1d-138518896778">
    <mxGraphModel dx="2062" dy="1162" grid="1" gridSize="10" guides="1" tooltips="1" connect="1" arrows="1" fold="1" page="1" pageScale="1" pageWidth="1100" pageHeight="850" background="none" math="0" shadow="0">
      <root>
        <mxCell id="0" />
        <mxCell id="1" parent="0" />
        <mxCell id="7c3789c024ecab99-81" value="Home Net" style="rounded=1;whiteSpace=wrap;html=1;shadow=0;comic=0;strokeColor=#036897;strokeWidth=2;fillColor=none;fontFamily=Verdana;fontSize=28;fontColor=#6881B3;align=center;arcSize=11;verticalAlign=top;" parent="1" vertex="1">
          <mxGeometry x="75" y="900" width="1065" height="420" as="geometry" />
        </mxCell>
        <mxCell id="7c3789c024ecab99-34" value="" style="fontColor=#0066CC;verticalAlign=top;verticalLabelPosition=bottom;labelPosition=center;align=center;html=1;fillColor=#CCCCCC;strokeColor=#6881B3;gradientColor=none;gradientDirection=north;strokeWidth=2;shape=mxgraph.networks.pc;rounded=0;shadow=0;comic=0;" parent="1" vertex="1">
          <mxGeometry x="290.0000000000002" y="1075.0017647058824" width="100" height="70" as="geometry" />
        </mxCell>
        <mxCell id="7c3789c024ecab99-35" value="" style="fontColor=#0066CC;verticalAlign=top;verticalLabelPosition=bottom;labelPosition=center;align=center;html=1;fillColor=#CCCCCC;strokeColor=#6881B3;gradientColor=none;gradientDirection=north;strokeWidth=2;shape=mxgraph.networks.pc;rounded=0;shadow=0;comic=0;" parent="1" vertex="1">
          <mxGeometry x="940.0000000000002" y="1129.4117647058824" width="100" height="70" as="geometry" />
        </mxCell>
        <mxCell id="7c3789c024ecab99-41" value="" style="fontColor=#0066CC;verticalAlign=top;verticalLabelPosition=bottom;labelPosition=center;align=center;html=1;fillColor=#CCCCCC;strokeColor=#6881B3;gradientColor=none;gradientDirection=north;strokeWidth=2;shape=mxgraph.networks.pc;rounded=0;shadow=0;comic=0;" parent="1" vertex="1">
          <mxGeometry x="672.0000000000002" y="1199.4117647058824" width="100" height="70" as="geometry" />
        </mxCell>
        <mxCell id="7c3789c024ecab99-43" value="" style="fontColor=#0066CC;verticalAlign=top;verticalLabelPosition=bottom;labelPosition=center;align=center;html=1;fillColor=#CCCCCC;strokeColor=#6881B3;gradientColor=none;gradientDirection=north;strokeWidth=2;shape=mxgraph.networks.printer;rounded=0;shadow=0;comic=0;" parent="1" vertex="1">
          <mxGeometry x="770.0000000000002" y="1184.4117647058824" width="100" height="100" as="geometry" />
        </mxCell>
        <mxCell id="7c3789c024ecab99-44" value="" style="fontColor=#0066CC;verticalAlign=top;verticalLabelPosition=bottom;labelPosition=center;align=center;html=1;fillColor=#CCCCCC;strokeColor=#6881B3;gradientColor=none;gradientDirection=north;strokeWidth=2;shape=mxgraph.networks.wireless_hub;rounded=0;shadow=0;comic=0;" parent="1" vertex="1">
          <mxGeometry x="670.0000000000002" y="1009.4117647058824" width="100" height="85" as="geometry" />
        </mxCell>
        <mxCell id="7c3789c024ecab99-33" style="edgeStyle=none;html=1;labelBackgroundColor=none;endArrow=none;endFill=0;strokeWidth=2;fontFamily=Verdana;fontSize=15;fontColor=#036897;entryX=0;entryY=0.807;entryDx=0;entryDy=0;entryPerimeter=0;" parent="1" source="7c3789c024ecab99-34" target="7c3789c024ecab99-44" edge="1">
          <mxGeometry relative="1" as="geometry">
            <mxPoint x="650.0000000000002" y="1129.4117647058824" as="targetPoint" />
          </mxGeometry>
        </mxCell>
        <mxCell id="7c3789c024ecab99-40" style="edgeStyle=none;html=1;labelBackgroundColor=none;endArrow=none;endFill=0;strokeWidth=2;fontFamily=Verdana;fontSize=15;fontColor=#036897;" parent="1" source="7c3789c024ecab99-41" target="7c3789c024ecab99-44" edge="1">
          <mxGeometry relative="1" as="geometry" />
        </mxCell>
        <mxCell id="7c3789c024ecab99-42" style="edgeStyle=none;html=1;labelBackgroundColor=none;endArrow=none;endFill=0;strokeWidth=2;fontFamily=Verdana;fontSize=15;fontColor=#036897;" parent="1" source="7c3789c024ecab99-43" target="7c3789c024ecab99-41" edge="1">
          <mxGeometry relative="1" as="geometry" />
        </mxCell>
        <mxCell id="7c3789c024ecab99-45" value="" style="html=1;fillColor=#CCCCCC;strokeColor=#6881B3;gradientColor=none;gradientDirection=north;strokeWidth=2;shape=mxgraph.networks.comm_link_edge;html=1;labelBackgroundColor=none;endArrow=none;endFill=0;fontFamily=Verdana;fontSize=20;" parent="1" source="7c3789c024ecab99-44" target="7c3789c024ecab99-46" edge="1">
          <mxGeometry width="100" height="100" relative="1" as="geometry">
            <mxPoint x="900.0000000000002" y="1109.4117647058824" as="sourcePoint" />
            <mxPoint x="603.0000000000002" y="1022.4117647058824" as="targetPoint" />
          </mxGeometry>
        </mxCell>
        <mxCell id="7c3789c024ecab99-46" value="" style="fontColor=#0066CC;verticalAlign=top;verticalLabelPosition=bottom;labelPosition=center;align=center;html=1;fillColor=#CCCCCC;strokeColor=#6881B3;gradientColor=none;gradientDirection=north;strokeWidth=2;shape=mxgraph.networks.mobile;rounded=0;shadow=0;comic=0;" parent="1" vertex="1">
          <mxGeometry x="320.0000000000002" y="919.4117647058824" width="50" height="100" as="geometry" />
        </mxCell>
        <mxCell id="7c3789c024ecab99-53" value="Internet" style="html=1;fillColor=#CCCCCC;strokeColor=#6881B3;gradientColor=none;gradientDirection=north;strokeWidth=2;shape=mxgraph.networks.cloud;fontColor=#6881B3;rounded=0;shadow=0;comic=0;align=center;fontSize=28;" parent="1" vertex="1">
          <mxGeometry x="890" y="620" width="330" height="140" as="geometry" />
        </mxCell>
        <mxCell id="7c3789c024ecab99-56" style="edgeStyle=none;html=1;labelBackgroundColor=none;endArrow=none;endFill=0;strokeWidth=2;fontFamily=Verdana;fontSize=28;fontColor=#6881B3;" parent="1" source="7c3789c024ecab99-54" target="7c3789c024ecab99-53" edge="1">
          <mxGeometry relative="1" as="geometry" />
        </mxCell>
        <mxCell id="7c3789c024ecab99-54" value="Оборудование провайдера в доме" style="fontColor=#0066CC;verticalAlign=top;verticalLabelPosition=bottom;labelPosition=center;align=center;html=1;fillColor=#CCCCCC;strokeColor=#6881B3;gradientColor=none;gradientDirection=north;strokeWidth=2;shape=mxgraph.networks.router;rounded=0;shadow=0;comic=0;" parent="1" vertex="1">
          <mxGeometry x="670" y="730" width="100" height="30" as="geometry" />
        </mxCell>
        <mxCell id="ca1hrgCrOkrjqZx0pn4w-3" value="" style="html=1;fillColor=#CCCCCC;strokeColor=#6881B3;gradientColor=none;gradientDirection=north;strokeWidth=2;shape=mxgraph.networks.comm_link_edge;html=1;labelBackgroundColor=none;endArrow=none;endFill=0;fontFamily=Verdana;fontSize=20;" edge="1" parent="1" source="7c3789c024ecab99-35">
          <mxGeometry width="100" height="100" relative="1" as="geometry">
            <mxPoint x="1050" y="1094.41" as="sourcePoint" />
            <mxPoint x="750" y="1028.41" as="targetPoint" />
          </mxGeometry>
        </mxCell>
        <mxCell id="ca1hrgCrOkrjqZx0pn4w-4" value="" style="fontColor=#0066CC;verticalAlign=top;verticalLabelPosition=bottom;labelPosition=center;align=center;html=1;outlineConnect=0;fillColor=#CCCCCC;strokeColor=#6881B3;gradientColor=none;gradientDirection=north;strokeWidth=2;shape=mxgraph.networks.users;" vertex="1" parent="1">
          <mxGeometry x="450" y="1175" width="90" height="100" as="geometry" />
        </mxCell>
        <mxCell id="ca1hrgCrOkrjqZx0pn4w-8" style="edgeStyle=orthogonalEdgeStyle;rounded=0;orthogonalLoop=1;jettySize=auto;html=1;exitX=0.5;exitY=0;exitDx=0;exitDy=0;exitPerimeter=0;" edge="1" parent="1" source="ca1hrgCrOkrjqZx0pn4w-5" target="7c3789c024ecab99-54">
          <mxGeometry relative="1" as="geometry" />
        </mxCell>
        <mxCell id="ca1hrgCrOkrjqZx0pn4w-5" value="" style="fontColor=#0066CC;verticalAlign=top;verticalLabelPosition=bottom;labelPosition=center;align=center;html=1;outlineConnect=0;fillColor=#CCCCCC;strokeColor=#6881B3;gradientColor=none;gradientDirection=north;strokeWidth=2;shape=mxgraph.networks.firewall;" vertex="1" parent="1">
          <mxGeometry x="670" y="860" width="100" height="100" as="geometry" />
        </mxCell>
        <mxCell id="ca1hrgCrOkrjqZx0pn4w-6" value="" style="edgeStyle=none;html=1;labelBackgroundColor=none;endArrow=none;endFill=0;strokeWidth=2;fontFamily=Verdana;fontSize=28;fontColor=#6881B3;exitX=0.5;exitY=0.736;exitDx=0;exitDy=0;exitPerimeter=0;" edge="1" parent="1" source="7c3789c024ecab99-44" target="ca1hrgCrOkrjqZx0pn4w-5">
          <mxGeometry relative="1" as="geometry">
            <mxPoint x="720" y="760" as="targetPoint" />
            <mxPoint x="720" y="1071.9717647058824" as="sourcePoint" />
          </mxGeometry>
        </mxCell>
        <mxCell id="ca1hrgCrOkrjqZx0pn4w-7" value="Встроенный в роутер файрволл" style="edgeLabel;html=1;align=center;verticalAlign=middle;resizable=0;points=[];" vertex="1" connectable="0" parent="ca1hrgCrOkrjqZx0pn4w-6">
          <mxGeometry x="-0.6075" y="1" relative="1" as="geometry">
            <mxPoint as="offset" />
          </mxGeometry>
        </mxCell>
      </root>
    </mxGraphModel>
  </diagram>
</mxfile>
